<svg width="236" height="42" viewBox="0 0 236 42" fill="none" xmlns="http://www.w3.org/2000/svg">
<g clip-path="url(#clip0)">
<path d="M186.257 13.375C186.295 14.4904 185.963 15.5862 185.316 16.4838C184.69 17.3225 183.627 17.7418 182.129 17.7418L168.204 17.7032V19.0528C168.212 19.7726 168.488 20.462 168.975 20.9807C169.176 21.244 169.43 21.4597 169.719 21.6128C170.009 21.7659 170.328 21.8528 170.653 21.8676H193.454V28.3743H169.201C167.523 28.4199 165.876 27.9131 164.5 26.9284C163.249 26.0347 162.215 24.8591 161.477 23.4919C160.88 22.5105 160.524 21.3961 160.438 20.2433V0.74707H187.437C188.186 0.778535 188.918 0.986332 189.576 1.35437C190.354 1.75451 191.075 2.2621 191.719 2.86298C192.323 3.42582 192.844 4.07518 193.266 4.79091C193.627 5.36811 193.832 6.03363 193.859 6.71884V7.34542H178.175H173.366H173.333H170.898H170.733H168.204V11.3989H186.271L186.257 13.375Z" fill="#ED1C24"/>
<path d="M69.0512 17.3514V11.6881C69.058 11.1306 68.9568 10.5772 68.7534 10.0601C68.55 9.54301 68.2486 9.07244 67.8665 8.67569C67.0767 7.84186 65.8355 7.42736 64.1055 7.42736H52.2162C51.6111 7.4685 51.0237 7.6533 50.5003 7.96718C49.8252 8.32117 49.2208 8.80182 48.7185 9.38421C48.2482 9.88833 47.9754 10.5523 47.9522 11.2495V16.6477C47.9407 17.8204 48.3003 18.9653 48.9771 19.9107C49.3247 20.3588 49.7733 20.7136 50.2843 20.9445C50.7954 21.1754 51.3535 21.2755 51.9106 21.2362H65.1774C66.1634 21.2681 67.1305 20.9535 67.9182 20.3445C68.6657 19.7468 69.0465 18.754 69.0465 17.3562L69.0512 17.3514ZM76.7752 19.9493C76.7832 21.45 76.349 22.9183 75.5294 24.1618C74.7461 25.3936 73.7095 26.4348 72.4924 27.2128C71.5559 27.8728 70.4627 28.2609 69.3285 28.3358H48.6433C47.042 28.3686 45.469 27.8995 44.1348 26.991C42.8651 26.1293 41.8233 24.9586 41.1026 23.5834C40.4382 22.3925 40.0731 21.0509 40.0401 19.6794V9.31191C40.0403 8.18859 40.2878 7.07981 40.7641 6.06817C41.2365 5.04774 41.8811 4.12093 42.6681 3.3305C43.4209 2.56043 44.293 1.92361 45.249 1.44595C46.0771 1.01299 46.9899 0.777388 47.9193 0.756714H68.2802C69.4553 0.824677 70.6042 1.13967 71.6556 1.68212C73.0696 2.35743 74.2951 3.38675 75.2191 4.67523C76.2565 6.06335 76.7752 7.84508 76.7752 10.0204V19.9493Z" fill="#ED1C24"/>
<path d="M214.44 28.2972H212.503V7.35025H198.56V0.708527H220.119V0.747085H236V7.40809H222.056V28.3358H214.44V28.2972Z" fill="#ED1C24"/>
<path d="M143.386 25.4053L129.283 8.56966C129.011 8.39818 128.695 8.31423 128.376 8.32866C128.11 8.33932 127.855 8.43546 127.647 8.60339C127.525 8.69107 127.427 8.8083 127.36 8.94458C127.294 9.08086 127.262 9.23191 127.266 9.38421V28.2972H119.65V0.74707H126.993C129.405 0.74707 131.267 0.848287 133.034 2.88226L146.198 18.754C146.473 19.1892 146.829 19.5643 147.246 19.8577C147.56 20.0278 147.911 20.1125 148.266 20.1035C148.713 20.1035 148.99 19.9637 149.098 19.689C149.22 19.315 149.274 18.9214 149.258 18.5274V0.74707H156.987V28.2972H147.373C146.165 28.2972 144.825 27.1308 143.382 25.4053" fill="#ED1C24"/>
<path d="M40.623 0L27.9016 23.6413C27.4748 24.4241 26.9673 25.1577 26.3878 25.8295C25.707 26.5756 24.8868 27.1739 23.9761 27.5887C22.7913 28.1185 21.5071 28.3736 20.2151 28.3358C19.0488 28.3535 17.891 28.128 16.8122 27.6732C15.7333 27.2183 14.7559 26.5435 13.939 25.6897C13.3991 25.1387 12.9512 24.5004 12.6133 23.8003L0 0H8.76303L18.8377 18.6045C19.0271 18.9791 19.244 19.3384 19.4865 19.6794C19.5766 19.7759 19.6868 19.8503 19.8089 19.8971C19.931 19.9438 20.0619 19.9617 20.1916 19.9493C20.3316 19.9625 20.4727 19.9434 20.6045 19.8933C20.7363 19.8433 20.8554 19.7636 20.9532 19.6601C21.1956 19.3268 21.411 18.9738 21.5973 18.6045L31.7425 0H40.623Z" fill="#ED1C24"/>
<path d="M117.939 29.0829L105.222 5.44159C104.797 4.65949 104.289 3.92736 103.708 3.25821C103.024 2.51007 102.199 1.91166 101.283 1.49897C100.106 0.969381 98.8297 0.712641 97.5451 0.747077C96.3781 0.727716 95.2193 0.95043 94.1383 1.40184C93.0574 1.85325 92.0766 2.52403 91.2549 3.37388C90.7148 3.93933 90.2672 4.59032 89.9292 5.30182L77.3206 29.0829H98.5512C99.2183 29.0829 99.8583 28.8122 100.331 28.3299C100.804 27.8476 101.072 27.193 101.076 26.5091V23.9015H88.8902L96.1582 10.4831C96.347 10.1077 96.5623 9.74682 96.8023 9.40349C96.893 9.30778 97.0033 9.23392 97.1253 9.18725C97.2472 9.14057 97.3778 9.12224 97.5075 9.13358C97.6474 9.12036 97.7885 9.13948 97.9203 9.18952C98.0521 9.23957 98.1713 9.31927 98.2691 9.42277C98.5132 9.7575 98.7302 10.1121 98.9178 10.4831L109.068 29.0829H117.939Z" fill="#ED1C24"/>
<path d="M196.863 35.2619H200.478C200.55 35.2625 200.621 35.2485 200.688 35.2207C200.755 35.1929 200.815 35.1518 200.866 35.0998C200.918 35.0478 200.958 34.986 200.986 34.9178C201.014 34.8497 201.028 34.7766 201.028 34.7028V34.2931H196.327C195.939 34.2931 195.567 34.451 195.293 34.7321C195.019 35.0132 194.865 35.3945 194.865 35.792V35.9415C194.861 36.1388 194.898 36.3347 194.971 36.517C195.045 36.6994 195.154 36.8644 195.292 37.0018C195.426 37.1434 195.587 37.2554 195.765 37.3308C195.943 37.4062 196.134 37.4436 196.327 37.4404H199.942C200.014 37.4384 200.086 37.4515 200.153 37.4789C200.22 37.5063 200.281 37.5474 200.332 37.5998C200.383 37.6521 200.423 37.7145 200.45 37.7832C200.476 37.852 200.489 37.9256 200.487 37.9995V39.0888C200.487 39.2371 200.43 39.3793 200.327 39.4842C200.225 39.589 200.086 39.6479 199.942 39.6479H196.872C196.8 39.6499 196.728 39.6368 196.661 39.6094C196.594 39.582 196.533 39.5409 196.482 39.4886C196.431 39.4363 196.391 39.3738 196.364 39.3051C196.337 39.2364 196.325 39.1628 196.327 39.0888V38.8189H194.865V39.1274C194.866 39.5241 195.02 39.9041 195.294 40.1842C195.568 40.4643 195.94 40.6215 196.327 40.6215H200.487C200.874 40.6215 201.245 40.4643 201.519 40.1842C201.793 39.9041 201.948 39.5241 201.949 39.1274V37.961C201.952 37.7637 201.916 37.5678 201.842 37.3854C201.769 37.2031 201.66 37.0381 201.521 36.9006C201.387 36.759 201.226 36.647 201.049 36.5716C200.871 36.4962 200.68 36.4589 200.487 36.462H196.872C196.8 36.4628 196.729 36.4487 196.663 36.4205C196.597 36.3923 196.537 36.3507 196.486 36.2981C196.435 36.2466 196.395 36.185 196.367 36.1171C196.34 36.0492 196.326 35.9764 196.327 35.9029V35.8258C196.325 35.7522 196.339 35.6791 196.366 35.6111C196.394 35.5431 196.435 35.4816 196.486 35.4306C196.536 35.3773 196.596 35.335 196.662 35.306C196.729 35.277 196.8 35.262 196.872 35.2619H196.863ZM188.518 35.8258V36.756H191.983V37.72H188.518V39.0647C188.518 39.1385 188.533 39.2116 188.561 39.2795C188.589 39.3474 188.631 39.4088 188.682 39.4599C188.732 39.513 188.792 39.5549 188.859 39.5831C188.925 39.6113 188.996 39.6252 189.068 39.6238H193.591C193.663 39.6227 193.735 39.6366 193.802 39.6648C193.869 39.6929 193.93 39.7347 193.981 39.7877C194.033 39.8391 194.075 39.9013 194.102 39.9702C194.13 40.0392 194.143 40.1133 194.141 40.1877V40.5974H188.518C188.132 40.5961 187.762 40.4383 187.489 40.1584C187.216 39.8785 187.062 39.4992 187.061 39.1033V35.7872C187.061 35.3905 187.214 35.01 187.487 34.729C187.76 34.448 188.131 34.2895 188.518 34.2883H194.159V34.7028C194.16 34.777 194.146 34.8506 194.119 34.9193C194.091 34.988 194.051 35.0505 194 35.1029C193.948 35.1554 193.888 35.197 193.821 35.2251C193.754 35.2532 193.682 35.2673 193.609 35.2667H189.087C188.94 35.2653 188.798 35.3231 188.691 35.4275C188.585 35.532 188.523 35.6749 188.518 35.8258ZM183.991 39.6431H180.925C180.854 39.6444 180.782 39.6306 180.716 39.6024C180.65 39.5742 180.59 39.5323 180.54 39.4792C180.488 39.4281 180.447 39.3667 180.418 39.2988C180.39 39.2309 180.376 39.1578 180.375 39.084V35.8258C180.379 35.6774 180.438 35.5361 180.541 35.4311C180.643 35.3261 180.781 35.2655 180.925 35.2619H183.991C184.063 35.2612 184.135 35.2754 184.202 35.3035C184.269 35.3316 184.33 35.3731 184.381 35.4256C184.432 35.4781 184.473 35.5405 184.5 35.6092C184.528 35.6779 184.541 35.7516 184.541 35.8258V39.084C184.541 39.1578 184.526 39.2309 184.498 39.2988C184.469 39.3667 184.428 39.4281 184.376 39.4792C184.326 39.5323 184.266 39.5742 184.2 39.6024C184.134 39.6306 184.062 39.6444 183.991 39.6431ZM184.541 34.2883H180.375C179.989 34.2895 179.618 34.448 179.345 34.729C179.071 35.01 178.918 35.3905 178.918 35.7872V39.1225C178.919 39.5184 179.073 39.8977 179.346 40.1777C179.619 40.4576 179.989 40.6154 180.375 40.6167H184.541C184.927 40.6154 185.297 40.4576 185.57 40.1777C185.843 39.8977 185.997 39.5184 185.998 39.1225V35.7872C185.998 35.3905 185.845 35.01 185.572 34.729C185.298 34.448 184.928 34.2895 184.541 34.2883ZM175.98 39.6431H172.919C172.847 39.6443 172.776 39.6309 172.709 39.6036C172.642 39.5763 172.581 39.5357 172.529 39.484C172.479 39.4313 172.439 39.3688 172.412 39.3001C172.386 39.2314 172.373 39.1579 172.374 39.084V35.8354C172.372 35.7612 172.385 35.6874 172.412 35.6184C172.438 35.5495 172.478 35.4867 172.529 35.434C172.58 35.3813 172.641 35.3398 172.708 35.3118C172.775 35.2839 172.847 35.2702 172.919 35.2715H175.98C176.052 35.2692 176.125 35.2826 176.192 35.3108C176.259 35.3391 176.32 35.3815 176.37 35.4354C176.422 35.4875 176.462 35.5498 176.49 35.6186C176.517 35.6874 176.531 35.7611 176.53 35.8354V36.1487H177.987V35.8161C177.99 35.6188 177.954 35.423 177.88 35.2406C177.807 35.0582 177.698 34.8932 177.559 34.7558C177.426 34.6148 177.266 34.5032 177.089 34.4278C176.912 34.3523 176.722 34.3147 176.53 34.3172H172.374C171.986 34.3172 171.614 34.4751 171.34 34.7562C171.066 35.0373 170.912 35.4186 170.912 35.8161V39.1418C170.913 39.5385 171.068 39.9186 171.342 40.1986C171.616 40.4787 171.987 40.636 172.374 40.636H174.381V41.2577C174.383 41.4542 174.459 41.6423 174.595 41.7812C174.73 41.9201 174.914 41.9987 175.105 42C175.203 42.0022 175.299 41.9836 175.389 41.9455C175.479 41.9073 175.56 41.8503 175.627 41.7783C175.693 41.7098 175.744 41.6283 175.778 41.5388C175.812 41.4493 175.828 41.3537 175.825 41.2577V40.6167H176.516C176.902 40.6154 177.272 40.4576 177.545 40.1777C177.818 39.8977 177.972 39.5184 177.973 39.1225V38.79H176.516V39.084C176.516 39.1582 176.503 39.2318 176.475 39.3005C176.448 39.3692 176.407 39.4316 176.356 39.484C176.307 39.5346 176.248 39.5746 176.183 39.6019C176.119 39.6292 176.05 39.6432 175.98 39.6431ZM163.907 35.8258C163.906 35.7522 163.919 35.6791 163.947 35.6111C163.974 35.5431 164.015 35.4816 164.067 35.4306C164.117 35.3773 164.177 35.335 164.243 35.306C164.309 35.277 164.38 35.262 164.453 35.2619H167.522C167.595 35.2601 167.667 35.2738 167.734 35.302C167.801 35.3302 167.862 35.3723 167.913 35.4257C167.964 35.4781 168.004 35.5406 168.03 35.6094C168.057 35.6782 168.07 35.7518 168.068 35.8258V37.0645H163.907V35.8258ZM169.549 35.7872C169.552 35.5899 169.515 35.394 169.442 35.2117C169.368 35.0293 169.259 34.8643 169.121 34.7269C168.987 34.5853 168.826 34.4733 168.648 34.3979C168.47 34.3224 168.279 34.2851 168.087 34.2883H163.926C163.734 34.2883 163.544 34.327 163.366 34.4024C163.189 34.4777 163.028 34.5881 162.892 34.7273C162.756 34.8665 162.649 35.0317 162.575 35.2136C162.502 35.3955 162.464 35.5904 162.464 35.7872V40.6071H163.926V38.0333H168.087V40.6167H169.549V35.7872ZM159.084 39.6431H156.014C155.869 39.6431 155.731 39.5842 155.628 39.4793C155.526 39.3745 155.469 39.2323 155.469 39.084V35.8258C155.467 35.7522 155.481 35.6791 155.508 35.6111C155.536 35.5431 155.577 35.4816 155.628 35.4306C155.678 35.3773 155.738 35.335 155.804 35.306C155.871 35.277 155.942 35.262 156.014 35.2619H159.084C159.156 35.2601 159.228 35.2738 159.296 35.302C159.363 35.3302 159.423 35.3723 159.474 35.4257C159.525 35.4781 159.565 35.5406 159.592 35.6094C159.618 35.6782 159.631 35.7518 159.629 35.8258V36.1487H161.091V35.8065C161.091 35.409 160.937 35.0277 160.663 34.7466C160.389 34.4655 160.017 34.3075 159.629 34.3075H155.469C155.081 34.3075 154.709 34.4655 154.435 34.7466C154.16 35.0277 154.006 35.409 154.006 35.8065V39.1418C154.008 39.5385 154.162 39.9186 154.436 40.1986C154.71 40.4787 155.082 40.636 155.469 40.636H159.629C160.016 40.636 160.387 40.4787 160.661 40.1986C160.935 39.9186 161.09 39.5385 161.091 39.1418V38.7996H159.629V39.1033C159.629 39.2516 159.572 39.3938 159.469 39.4986C159.367 39.6035 159.228 39.6624 159.084 39.6624V39.6431ZM152.873 34.2883V40.6167C152.487 40.6154 152.117 40.4576 151.844 40.1777C151.571 39.8977 151.417 39.5184 151.416 39.1225V34.3027L152.873 34.2883ZM145.352 35.2522H148.417C148.489 35.2499 148.562 35.2633 148.629 35.2915C148.696 35.3198 148.757 35.3622 148.807 35.4161C148.859 35.4682 148.899 35.5306 148.927 35.5993C148.954 35.6681 148.968 35.7418 148.967 35.8161V40.6071H150.438V35.7872C150.441 35.5899 150.405 35.394 150.331 35.2117C150.258 35.0293 150.149 34.8643 150.01 34.7269C149.877 34.5859 149.717 34.4742 149.54 34.3988C149.363 34.3234 149.173 34.2858 148.981 34.2883H144.797C144.409 34.2883 144.037 34.4462 143.763 34.7273C143.489 35.0084 143.335 35.3897 143.335 35.7872V40.6071H144.797V35.8258C144.795 35.7517 144.809 35.6781 144.837 35.61C144.866 35.5418 144.908 35.4806 144.961 35.4306C145.013 35.3744 145.076 35.3303 145.146 35.3012C145.215 35.2721 145.29 35.2587 145.366 35.2619L145.352 35.2522ZM135.385 39.1081C135.386 39.5048 135.541 39.8848 135.815 40.1649C136.089 40.445 136.46 40.6022 136.847 40.6022H141.036C141.423 40.6022 141.794 40.445 142.068 40.1649C142.342 39.8848 142.497 39.5048 142.498 39.1081V34.2883H141.036V39.1081C141.036 39.1815 141.022 39.2542 140.994 39.3221C140.967 39.3899 140.927 39.4515 140.876 39.5034C140.825 39.5554 140.765 39.5965 140.699 39.6246C140.633 39.6527 140.562 39.6672 140.491 39.6672H137.421C137.349 39.6672 137.278 39.6527 137.212 39.6246C137.146 39.5965 137.086 39.5554 137.035 39.5034C136.984 39.4515 136.944 39.3899 136.917 39.3221C136.889 39.2542 136.875 39.1815 136.875 39.1081V34.2883H135.394L135.385 39.1081ZM134.473 35.7631C134.476 35.567 134.44 35.3722 134.367 35.1908C134.295 35.0093 134.187 34.8449 134.05 34.7076C133.918 34.5667 133.758 34.4554 133.582 34.3807C133.405 34.3061 133.216 34.2697 133.025 34.2738H127.228C127.038 34.2732 126.849 34.3113 126.673 34.386C126.496 34.4606 126.336 34.5704 126.202 34.7089C126.067 34.8474 125.96 35.0118 125.888 35.1928C125.816 35.3738 125.779 35.5676 125.78 35.7631V40.583H127.228V35.7631C127.229 35.6897 127.244 35.6171 127.272 35.5495C127.3 35.4819 127.34 35.4207 127.391 35.3692C127.443 35.3177 127.503 35.2771 127.569 35.2496C127.636 35.222 127.707 35.2082 127.778 35.2088H129.415V40.6167H130.862V35.2619H132.498C132.642 35.2619 132.78 35.3201 132.882 35.4239C132.985 35.5277 133.043 35.6687 133.044 35.8161V40.636H134.492L134.473 35.7631ZM122.791 39.619H119.739C119.668 39.6203 119.596 39.6065 119.53 39.5783C119.464 39.5501 119.404 39.5082 119.354 39.4551C119.302 39.404 119.261 39.3426 119.232 39.2747C119.204 39.2068 119.19 39.1337 119.189 39.0599V35.8258C119.193 35.6774 119.252 35.5361 119.354 35.4311C119.457 35.3261 119.595 35.2655 119.739 35.2619H122.805C122.877 35.2612 122.949 35.2754 123.016 35.3035C123.083 35.3316 123.144 35.3731 123.195 35.4256C123.246 35.4781 123.287 35.5405 123.314 35.6092C123.341 35.6779 123.355 35.7516 123.355 35.8258V39.084C123.355 39.1578 123.34 39.2309 123.312 39.2988C123.283 39.3667 123.242 39.4281 123.19 39.4792C123.14 39.5323 123.08 39.5742 123.014 39.6024C122.948 39.6306 122.876 39.6444 122.805 39.6431L122.791 39.619ZM123.341 34.2642H119.175C118.788 34.2654 118.418 34.4239 118.144 34.7049C117.871 34.9859 117.718 35.3664 117.718 35.7631V39.0985C117.719 39.4943 117.873 39.8736 118.146 40.1536C118.419 40.4335 118.789 40.5913 119.175 40.5926H123.341C123.727 40.5913 124.097 40.4335 124.37 40.1536C124.643 39.8736 124.797 39.4943 124.798 39.0985V35.7872C124.798 35.3905 124.645 35.01 124.371 34.729C124.098 34.448 123.728 34.2895 123.341 34.2883V34.2642ZM114.625 39.6431H111.559C111.488 39.6444 111.416 39.6306 111.35 39.6024C111.284 39.5742 111.224 39.5323 111.174 39.4792C111.122 39.4281 111.081 39.3667 111.052 39.2988C111.024 39.2309 111.009 39.1578 111.009 39.084V35.8258C111.013 35.6774 111.072 35.5361 111.174 35.4311C111.277 35.3261 111.415 35.2655 111.559 35.2619H114.625C114.698 35.2592 114.771 35.2719 114.839 35.2993C114.907 35.3266 114.969 35.368 115.021 35.4208C115.073 35.4736 115.114 35.5368 115.141 35.6065C115.168 35.6761 115.181 35.7508 115.179 35.8258V36.1487H116.641V35.8065C116.644 35.608 116.608 35.4111 116.536 35.227C116.463 35.0429 116.356 34.8753 116.22 34.7341C116.084 34.5929 115.922 34.4807 115.743 34.4042C115.565 34.3276 115.373 34.2882 115.179 34.2883H111.014C110.822 34.2858 110.632 34.3234 110.455 34.3988C110.278 34.4742 110.118 34.5859 109.984 34.7269C109.846 34.8643 109.737 35.0293 109.664 35.2117C109.59 35.394 109.554 35.5899 109.557 35.7872V39.1225C109.558 39.5184 109.712 39.8977 109.985 40.1777C110.258 40.4576 110.628 40.6154 111.014 40.6167H115.179C115.566 40.6167 115.937 40.4594 116.211 40.1794C116.486 39.8993 116.64 39.5193 116.641 39.1225V38.7803H115.179V39.084C115.18 39.1575 115.166 39.2304 115.139 39.2984C115.111 39.3663 115.071 39.4278 115.019 39.4792C114.968 39.5325 114.906 39.5745 114.838 39.6027C114.771 39.6309 114.698 39.6446 114.625 39.6431ZM102.956 35.8258V36.756H106.426V37.72H102.956V39.0647C102.956 39.1385 102.971 39.2116 102.999 39.2795C103.027 39.3474 103.069 39.4088 103.121 39.4599C103.171 39.513 103.23 39.5549 103.297 39.5831C103.363 39.6113 103.434 39.6252 103.506 39.6238H108.033C108.106 39.6232 108.178 39.6374 108.245 39.6655C108.312 39.6937 108.372 39.7352 108.424 39.7877C108.475 39.8401 108.515 39.9025 108.541 39.9713C108.568 40.0401 108.581 40.1137 108.579 40.1877V40.5974H102.956C102.57 40.5961 102.2 40.4383 101.927 40.1584C101.654 39.8785 101.5 39.4992 101.499 39.1033V35.7872C101.496 35.5899 101.532 35.394 101.606 35.2117C101.679 35.0293 101.789 34.8643 101.927 34.7269C102.06 34.5859 102.22 34.4742 102.397 34.3988C102.574 34.3234 102.765 34.2858 102.956 34.2883H108.598V34.7028C108.6 34.7768 108.587 34.8504 108.56 34.9192C108.534 34.988 108.493 35.0504 108.442 35.1028C108.392 35.1562 108.331 35.1983 108.264 35.2265C108.197 35.2547 108.125 35.2684 108.052 35.2667H103.525C103.378 35.2653 103.236 35.3231 103.13 35.4275C103.023 35.532 102.961 35.6749 102.956 35.8258ZM95.0864 39.084C95.0864 39.2323 95.1438 39.3745 95.2461 39.4793C95.3484 39.5842 95.4871 39.6431 95.6317 39.6431H98.7016C98.7738 39.6452 98.8456 39.6321 98.9127 39.6048C98.9798 39.5774 99.0407 39.5363 99.0918 39.484C99.143 39.4316 99.1835 39.3692 99.211 39.3005C99.2384 39.2318 99.2522 39.1582 99.2516 39.084V38.7803H100.709V39.1225C100.708 39.5184 100.554 39.8977 100.281 40.1777C100.008 40.4576 99.6378 40.6154 99.2516 40.6167H95.0864C94.6994 40.6167 94.3283 40.4594 94.0542 40.1794C93.7801 39.8993 93.6255 39.5193 93.6243 39.1225V34.3027H95.0864V39.084ZM87.1931 35.8258V36.756H90.6626V37.72H87.1931V39.0647C87.1932 39.1385 87.2078 39.2116 87.2361 39.2795C87.2644 39.3474 87.3057 39.4088 87.3576 39.4599C87.4074 39.513 87.4674 39.5549 87.5337 39.5831C87.6 39.6113 87.6713 39.6252 87.7431 39.6238H92.2704C92.3428 39.6232 92.4145 39.6374 92.4815 39.6655C92.5485 39.6937 92.6094 39.7352 92.6606 39.7877C92.7116 39.8401 92.7516 39.9025 92.7783 39.9713C92.805 40.0401 92.8177 40.1137 92.8157 40.1877V40.5974H87.1743C86.7881 40.5961 86.4182 40.4383 86.1451 40.1584C85.8721 39.8785 85.7181 39.4992 85.7169 39.1033V35.7872C85.7169 35.3905 85.8703 35.01 86.1435 34.729C86.4166 34.448 86.7873 34.2895 87.1743 34.2883H92.8157V34.7028C92.8177 34.7768 92.805 34.8504 92.7783 34.9192C92.7516 34.988 92.7116 35.0504 92.6606 35.1028C92.61 35.1562 92.5493 35.1983 92.4822 35.2265C92.415 35.2547 92.3429 35.2684 92.2704 35.2667H87.7431C87.5984 35.2704 87.4605 35.3309 87.3581 35.4359C87.2557 35.5409 87.1966 35.6822 87.1931 35.8306V35.8258ZM77.9693 34.7028C77.9693 34.8502 78.0261 34.9917 78.1274 35.0964C78.2286 35.2011 78.3661 35.2606 78.51 35.2619H80.7665V40.6167H82.2333V35.2619H84.4946C84.5672 35.2642 84.6395 35.2508 84.7067 35.2226C84.7739 35.1943 84.8346 35.1519 84.8848 35.098C84.9364 35.0459 84.9772 34.9835 85.0047 34.9148C85.0322 34.846 85.0457 34.7722 85.0446 34.6979V34.2883H77.9693V34.7028Z" fill="#6D6E71"/>
<path d="M180.126 33.5653V32.6013C180.283 32.418 180.477 32.2727 180.695 32.176C180.913 32.0793 181.149 32.0336 181.386 32.0422C181.58 32.0447 181.773 32.0722 181.96 32.1242C182.251 32.2106 182.535 32.3185 182.811 32.4471C182.964 32.5163 183.121 32.5759 183.281 32.6254C183.383 32.654 183.489 32.6686 183.596 32.6688C183.811 32.6624 184.022 32.5993 184.207 32.4856C184.418 32.3576 184.607 32.1948 184.766 32.0037V32.9676C184.594 33.136 184.396 33.2729 184.179 33.3725C183.966 33.4583 183.739 33.5009 183.511 33.4978C183.335 33.498 183.16 33.4753 182.989 33.4303C182.721 33.3471 182.458 33.244 182.204 33.1219C181.927 32.9762 181.622 32.8925 181.311 32.876C181.122 32.8734 180.935 32.9163 180.766 33.0014C180.531 33.1295 180.316 33.2918 180.126 33.4833" fill="#6D6E71"/>
</g>
<defs>
<clipPath id="clip0">
<rect width="236" height="42" fill="white"/>
</clipPath>
</defs>
</svg>
